<svg xmlns="http://www.w3.org/2000/svg" width="403.766" height="459.873" viewBox="0 0 403.766 459.873">
  <g id="Group_80" data-name="Group 80" transform="translate(-933.627 -4486.509)">
    <g id="freepik--Plant--inject-94" transform="translate(941.719 4757.266)">
      <path id="Path_1114" data-name="Path 1114" d="M95.951,444.161c1.086-4-1.6-8-4.529-10.861s-6.441-5.485-7.972-9.319c-2.476-6.212.847-14.25-3.367-19.43-2.487-3.041-6.94-4.062-9.145-7.32a16.541,16.541,0,0,1-1.988-5.811,59,59,0,0,0-14.695-27.5,51.286,51.286,0,0,0,5.767,26.5c1.705,3.258,3.812,6.43,4.344,10.068.923,5.9-2.379,11.947-.923,17.768,1.662,6.625,9.1,11.067,9.449,17.888.3,5.767-4.725,10.861-4.344,16.6a15.445,15.445,0,0,0,2.6,6.842c4.453,7.418,11.013,12.523,20.94,12.36l12.164.424Z" transform="translate(-54.183 -283.614)" fill="#fa7d00"/>
      <g id="Group_58" data-name="Group 58" transform="translate(0 80.306)" opacity="0.3">
        <path id="Path_1115" data-name="Path 1115" d="M95.951,444.161c1.086-4-1.6-8-4.529-10.861s-6.441-5.485-7.972-9.319c-2.476-6.212.847-14.25-3.367-19.43-2.487-3.041-6.94-4.062-9.145-7.32a16.541,16.541,0,0,1-1.988-5.811,59,59,0,0,0-14.695-27.5,51.286,51.286,0,0,0,5.767,26.5c1.705,3.258,3.812,6.43,4.344,10.068.923,5.9-2.379,11.947-.923,17.768,1.662,6.625,9.1,11.067,9.449,17.888.3,5.767-4.725,10.861-4.344,16.6a15.445,15.445,0,0,0,2.6,6.842c4.453,7.418,11.013,12.523,20.94,12.36l12.164.424Z" transform="translate(-54.183 -363.92)"/>
      </g>
      <path id="Path_1116" data-name="Path 1116" d="M103.018,475.932a9.775,9.775,0,0,0,3.356-.065,20.923,20.923,0,0,0,3.943-1A16.89,16.89,0,0,0,115.2,472.2a6.756,6.756,0,0,0,2.009-2.683,12.674,12.674,0,0,0,.565-3.628,35.319,35.319,0,0,1,.293-3.932,10.632,10.632,0,0,1,1.477-3.91c1.434-2.52,3.823-4.909,4.583-8.33s.239-7.005-.326-10.655-1.086-7.6.282-11.426,3.975-7.244,5.311-11.523.706-8.993.988-13.587a17.921,17.921,0,0,1,1.586-6.756c.977-2.172,2.346-4.181,3.41-6.441,2.172-4.583,2.541-9.775,3.128-14.869.293-2.563.576-5.159.869-7.766a38.6,38.6,0,0,1,1.358-7.787,69.683,69.683,0,0,1,2.911-7.527,26.161,26.161,0,0,0,1.412-3.921,39.577,39.577,0,0,0,.391-4.192,49.752,49.752,0,0,0-.326-8.417c-.326-2.8-.836-5.583-1.14-8.4v-.489l-.065-.554-.489.239a18.789,18.789,0,0,0-6.517,5.528,30.031,30.031,0,0,0-4.029,7.418c-2.031,5.224-2.759,10.7-3.78,15.922s-2.324,10.361-5,14.706c-1.336,2.172-2.954,4.149-4.344,6.256a17.139,17.139,0,0,0-3.019,6.929c-.728,5.148,2.107,9.666,1.521,14.228a15.737,15.737,0,0,1-2.172,6.31c-1.086,1.944-2.4,3.747-3.638,5.55a35.579,35.579,0,0,0-3.258,5.615,17.671,17.671,0,0,0-1.5,6.093c-.293,4.105.282,7.994,0,11.665a26.881,26.881,0,0,1-3.008,10c-1.466,2.987-3.106,5.691-4.475,8.319-.684,1.3-1.325,2.585-1.846,3.877a19.411,19.411,0,0,0-1.086,3.845,24.111,24.111,0,0,0-.087,6.94,17.5,17.5,0,0,0,3.476,8.852,8.812,8.812,0,0,0,.988,1.086,4.944,4.944,0,0,0,.793.673c.456.337.7.489.7.489a15.128,15.128,0,0,1-2.357-2.324,17.54,17.54,0,0,1-3.258-8.8,23.992,23.992,0,0,1,.152-6.842,18.466,18.466,0,0,1,1.086-3.747,39.687,39.687,0,0,1,1.857-3.823c1.379-2.607,3.03-5.3,4.529-8.309a27.153,27.153,0,0,0,3.106-10.177c.326-3.747-.239-7.657.065-11.654a17.443,17.443,0,0,1,1.466-5.9,35.428,35.428,0,0,1,3.258-5.5c1.238-1.8,2.552-3.606,3.682-5.593a16.291,16.291,0,0,0,2.324-6.571c.586-4.855-2.227-9.395-1.5-14.184a16.649,16.649,0,0,1,2.922-6.625c1.379-2.074,3.008-4.051,4.344-6.278,2.77-4.464,4.105-9.7,5.116-14.945s1.759-10.676,3.758-15.8a29.228,29.228,0,0,1,3.921-7.212,18.018,18.018,0,0,1,6.267-5.3l-.554-.315a1.6,1.6,0,0,0,.054.5c.3,2.846.815,5.626,1.086,8.406a48.179,48.179,0,0,1,.315,8.287,40.574,40.574,0,0,1-.369,4.062,24.435,24.435,0,0,1-1.368,3.79,71.738,71.738,0,0,0-2.932,7.6,39.425,39.425,0,0,0-1.368,7.907c-.282,2.617-.576,5.213-.858,7.776-.586,5.116-.967,10.22-3.041,14.641-1.086,2.172-2.389,4.247-3.4,6.462a18.584,18.584,0,0,0-1.629,7.005c-.271,4.692.337,9.286-.934,13.435s-3.91,7.6-5.246,11.523-.847,8.07-.261,11.708,1.173,7.222.391,10.448-3.019,5.637-4.475,8.222a11.068,11.068,0,0,0-1.51,4.073,34.193,34.193,0,0,0-.261,3.975,12.163,12.163,0,0,1-.521,3.541,6.4,6.4,0,0,1-1.879,2.552,16.736,16.736,0,0,1-4.768,2.694,21.065,21.065,0,0,1-3.9,1.086A14.954,14.954,0,0,1,104,476C103.311,475.932,103.018,475.932,103.018,475.932Z" transform="translate(-50.498 -286.93)" fill="#263238"/>
      <path id="Path_1117" data-name="Path 1117" d="M140.962,332.1a1.3,1.3,0,0,0-.119.369l-.261,1.086c-.239.967-.532,2.411-.988,4.214s-1.575,3.845-2.52,6.354a90.663,90.663,0,0,0-2.889,8.624c-.934,3.258-1.749,6.842-2.617,10.709a45.043,45.043,0,0,1-3.888,11.871,65.006,65.006,0,0,0-3.008,6.169,28.291,28.291,0,0,0-1.749,6.973,142.365,142.365,0,0,1-2.628,14.717c-2.433,9.96-4.757,19.452-6.875,28.1S109.3,447.66,107.652,454.2s-2.9,11.751-3.812,15.477c-.424,1.781-.76,3.182-1,4.214-.1.445-.185.8-.25,1.086a2.009,2.009,0,0,0,0,.38,1.422,1.422,0,0,0,.141-.358c.076-.293.185-.641.315-1.086.272-1.01.652-2.411,1.14-4.182.977-3.693,2.357-8.939,4.062-15.4s3.693-14.282,5.919-22.873,4.486-18.149,6.94-28.119a135.452,135.452,0,0,0,2.563-14.76,28.054,28.054,0,0,1,1.694-6.81c.858-2.172,1.955-4.116,2.954-6.115,2.172-3.964,3.03-8.222,3.888-12.056s1.618-7.461,2.509-10.7,1.825-6.126,2.759-8.624a66.058,66.058,0,0,0,2.411-6.43c.445-1.868.652-3.258.847-4.257q.109-.673.2-1.086C140.962,332.23,140.984,332.1,140.962,332.1Z" transform="translate(-50.016 -286.354)" fill="#263238"/>
      <path id="Path_1118" data-name="Path 1118" d="M108,479.036c7.939-4.725,10.22-19.061,6.908-27.685s-9.112-16.509-10-25.708c-.7-7.07,1.629-14.326,0-21.233-2.227-9.329-11.328-16.552-11.219-26.142.054-5.376,3.117-10.437,2.867-15.814-.293-6.582-5.354-11.817-8.482-17.616-4.8-8.9-5.116-19.4-6.756-29.325s-5.43-20.636-14.271-25.534c-1.3,8.461-3.53,14.26-2.835,25.719.261,4.116,5.039,11.947,5.691,21.016.391,5.43.652,10.8.988,16.183s.663,10.6,2.541,15.509c1.445,3.769,3.758,7.19,4.833,11.078,2.009,7.309-.641,15.205.988,22.634,1.379,6.278,5.724,11.676,6.614,18.04,1.238,8.939-4.54,18.236-1.586,26.761,1.477,4.236,4.953,7.6,5.941,12,.771,3.389-.065,6.984.63,10.383,1.086,5.5,11.578,9.775,17.171,9.416" transform="translate(-53.331 -289.98)" fill="#fa7d00"/>
      <path id="Path_1119" data-name="Path 1119" d="M68.811,297.67a2.573,2.573,0,0,0,0,.478c0,.358.109.815.174,1.39.185,1.227.391,3.019.8,5.344s1.651,4.953,2.607,8.124,2.02,6.8,2.911,10.861,1.673,8.591,2.465,13.446,1.662,10.144,4.073,15.205c1.086,2.531,2.368,5.072,3.258,7.787a35.134,35.134,0,0,1,1.673,8.58,171.714,171.714,0,0,0,2.335,18.464c2.433,12.534,4.746,24.47,6.853,35.342s4.225,20.571,5.919,28.781,3.085,14.771,4.051,19.4l1.086,5.268c.13.565.228,1.01.315,1.358a2.705,2.705,0,0,0,.13.467,1.989,1.989,0,0,0,0-.478c-.065-.358-.141-.8-.239-1.379-.239-1.26-.576-3.041-1-5.3-.912-4.638-2.172-11.263-3.812-19.441s-3.584-17.986-5.745-28.814-4.344-22.808-6.788-35.331a173.245,173.245,0,0,1-2.346-18.464A35.645,35.645,0,0,0,85.808,360c-.967-2.759-2.237-5.311-3.356-7.831-2.389-4.985-3.258-10.188-4.084-15.021s-1.618-9.373-2.563-13.457-1.977-7.733-3.041-10.861-2.248-5.778-2.726-8.048-.706-4.095-.934-5.3c-.109-.565-.2-1.021-.261-1.379A3.678,3.678,0,0,0,68.811,297.67Z" transform="translate(-52.924 -289.318)" fill="#263238"/>
    </g>
    <g id="Group_79" data-name="Group 79">
      <g id="freepik--background-complete--inject-94" transform="translate(933.627 4486.509)">
        <path id="Path_1094" data-name="Path 1094" d="M280.789,472.024c-18.724-8.863-26.186-29.933-28.825-49.558-.445-3.258-1.379-6.647-.315-9.775s4.344-5.68,7.494-4.8c2.617.728,4.149,3.356,5.9,5.431a19.181,19.181,0,0,0,8.863,6c2.259.728,4.942.956,6.8-.521,2.541-2.031,2.172-5.963,1.651-9.2q-1.6-9-3.128-18.007a30.671,30.671,0,0,1-.641-9.775c.478-3.258,2.226-6.517,5.159-7.863s7.049-.25,8.233,2.813a30.755,30.755,0,0,1,.782,4.008c.315,1.336,1.195,2.715,2.531,2.878s2.5-.977,3.313-2.1c2.78-3.834,4.344-8.428,5.756-12.979s2.737-9.188,5.17-13.272,6.147-7.6,10.742-8.689,10.025.977,11.947,5.333.065,9.449-2.172,13.641a73.517,73.517,0,0,1-12.7,16.878,6.05,6.05,0,0,0-2.064,3.128c-.337,2.281,2.074,4.084,4.344,4.431,2.541.391,5.126-.3,7.7-.434s5.5.521,6.864,2.748c1.879,3.085-.3,7.027-2.639,9.775A62.993,62.993,0,0,1,315.012,415.8c-2.237,1.271-4.616,2.465-6.256,4.464s-2.3,5.1-.76,7.19,4.659,2.313,7.07,1.423,4.42-2.617,6.647-3.91c4.171-2.433,9.97-3.106,13.478.261a10.383,10.383,0,0,1,2.617,8.884,23.818,23.818,0,0,1-3.551,8.83,63.276,63.276,0,0,1-23.438,23.2c-9.721,5.322-19.126,7.918-30.02,5.9" transform="translate(-29.132 -14.373)" fill="#f5f5f5"/>
        <path id="Path_1095" data-name="Path 1095" d="M281.17,458.769a294.182,294.182,0,0,1,6.234-33.2l2.085-8.613c.684-2.835,1.369-5.637,2.172-8.33a147.717,147.717,0,0,1,5.713-15.205c2.053-4.757,4.171-9.21,6.18-13.348s3.975-7.961,5.908-11.361a116.21,116.21,0,0,1,10.3-15.379c1.358-1.716,2.455-3.008,3.2-3.877.358-.413.652-.739.858-.988s.3-.326.315-.315a3.272,3.272,0,0,1-.261.358l-.825,1.021c-.717.891-1.781,2.172-3.106,3.943a123.479,123.479,0,0,0-10.112,15.455c-1.9,3.41-3.834,7.233-5.832,11.371s-4.084,8.591-6.115,13.348a146.029,146.029,0,0,0-5.648,15.205c-.836,2.683-1.51,5.43-2.172,8.3l-2.085,8.624a300.917,300.917,0,0,0-6.267,33.126" transform="translate(-26.549 -14.216)" fill="#e0e0e0"/>
        <path id="Path_1096" data-name="Path 1096" d="M291.853,406.552a6.288,6.288,0,0,1-.554-1.336c-.326-.858-.749-2.172-1.249-3.7-1-3.15-2.237-7.548-3.584-12.392s-2.639-9.221-3.693-12.338c-.521-1.564-.956-2.835-1.26-3.693a7.979,7.979,0,0,1-.424-1.379,6.349,6.349,0,0,1,.641,1.292c.38.836.869,2.085,1.444,3.628,1.162,3.106,2.52,7.461,3.877,12.327s2.5,9.123,3.41,12.425c.424,1.5.771,2.759,1.086,3.769a8.183,8.183,0,0,1,.3,1.4Z" transform="translate(-26.555 -12.188)" fill="#e0e0e0"/>
        <path id="Path_1097" data-name="Path 1097" d="M331.35,390.13a8.2,8.2,0,0,1-1.629.489c-1.086.272-2.574.662-4.442,1.206-3.747,1.086-8.862,2.694-14.434,4.757s-10.535,4.16-14.119,5.767c-1.781.793-3.2,1.477-4.192,1.944a9.464,9.464,0,0,1-1.553.673,8.154,8.154,0,0,1,1.444-.891c.956-.532,2.357-1.271,4.116-2.172,3.508-1.716,8.461-3.877,14.043-5.952a146.61,146.61,0,0,1,14.543-4.594c1.89-.5,3.432-.825,4.507-1.032a9.272,9.272,0,0,1,1.716-.2Z" transform="translate(-25.704 -10.602)" fill="#e0e0e0"/>
        <path id="Path_1098" data-name="Path 1098" d="M283.9,453.165a2.834,2.834,0,0,1-.369-.467l-.967-1.379c-.836-1.216-2-2.987-3.4-5.2-2.824-4.431-6.517-10.676-10.5-17.627s-7.6-13.218-10.35-17.693l-3.258-5.311-.869-1.444a2.074,2.074,0,0,1-.272-.521,4.146,4.146,0,0,1,.369.456c.228.315.586.825.967,1.39.836,1.206,2,2.976,3.41,5.2,2.813,4.431,6.517,10.665,10.5,17.616s7.6,13.218,10.34,17.7l3.258,5.3c.348.576.641,1.086.869,1.445A2.012,2.012,0,0,1,283.9,453.165Z" transform="translate(-28.896 -9.449)" fill="#e0e0e0"/>
        <path id="Path_1099" data-name="Path 1099" d="M333.852,424.18a2.021,2.021,0,0,1-.51.326l-1.51.8-5.6,2.922c-4.735,2.476-11.23,5.963-18.4,9.775s-13.7,7.3-18.464,9.666c-2.389,1.184-4.344,2.172-5.691,2.748l-1.629.717a2.521,2.521,0,0,1-.565.217,2.336,2.336,0,0,1,.51-.326l1.52-.8,5.6-2.932c4.724-2.465,11.219-5.952,18.388-9.775s13.707-7.288,18.464-9.655c2.389-1.184,4.344-2.172,5.691-2.748l1.564-.717A2.174,2.174,0,0,1,333.852,424.18Z" transform="translate(-26.522 -7.67)" fill="#e0e0e0"/>
        <path id="Path_1100" data-name="Path 1100" d="M154.766,247.43s-12.9,1.792-5.659,30.052S162.5,320.318,162.5,320.318s.967,6.4-4.192,6.2-15.683-4.344-19.256,1.184c-3.693,5.778-.456,12.729,7.6,20.017s25.241,23.894,26.783,25.4,2.672,4.616-.869,5.04-28.651-2.52-29.325,9.482,25.208,28.6,28,30.465,3.258,3.323,2.607,4.953-8.971-.163-16.15-.717-15.607.087-15.423,7.038,13.783,24.546,53.425,37.622l18.779,4.855L228.349,458.2c27.913-31.051,30.965-53.067,27.674-59.192s-10.861-2.487-16.878,1.553-12.316,9.775-13.663,8.689-1.694-2.585-.2-5.593,15.716-30.269,9.156-40.348-26.892,4.931-30.15,6.31-3.845-1.9-3.258-3.942,7.212-24.98,10.622-35.352,2.759-18-3.323-21.168c-5.865-3.052-12.914,5.811-17.3,8.548s-6.712-3.258-6.712-3.258-1.912-15.694-9.666-43.824-20.125-23.09-20.125-23.09" transform="translate(-38.915 -22.909)" fill="#ebebeb"/>
        <path id="Path_1101" data-name="Path 1101" d="M212.589,474.5c-5.615-20.636-14.988-57.563-23.188-89.266s-15.651-60.289-21.168-80.99c-2.759-10.34-5-18.7-6.517-24.513-.76-2.878-1.358-5.126-1.77-6.669l-.456-1.738c-.1-.391-.13-.6-.13-.6s.076.185.2.576.282.988.5,1.727c.445,1.542,1.086,3.769,1.89,6.636,1.629,5.767,3.932,14.119,6.734,24.459,5.615,20.636,13.142,49.32,21.342,80.957s17.5,68.6,23.014,89.3" transform="translate(-37.036 -20.881)" fill="#e0e0e0"/>
        <path id="Path_1102" data-name="Path 1102" d="M152.27,327.26a7.014,7.014,0,0,1,1.238.662c.771.456,1.879,1.151,3.258,2.02,2.7,1.749,6.386,4.257,10.394,7.092l10.231,7.3,3.117,2.172a6.17,6.17,0,0,1,1.086.858,6.832,6.832,0,0,1-1.249-.663c-.771-.456-1.879-1.151-3.258-2.031-2.683-1.77-6.332-4.344-10.34-7.168l-10.285-7.223-3.128-2.172a6.378,6.378,0,0,1-1.064-.847Z" transform="translate(-37.646 -16.014)" fill="#e0e0e0"/>
        <path id="Path_1103" data-name="Path 1103" d="M180.72,347.68c-.141-.087,4.692-7.9,10.785-17.443s11.165-17.215,11.306-17.128-4.692,7.907-10.8,17.454S180.861,347.746,180.72,347.68Z" transform="translate(-35.197 -17.233)" fill="#e0e0e0"/>
        <path id="Path_1104" data-name="Path 1104" d="M190.3,392.2a5.72,5.72,0,0,1,1.032-1l2.922-2.563c2.465-2.172,5.865-5.17,9.492-8.624s6.821-6.679,9.1-9.036c1.086-1.086,1.977-2.053,2.7-2.791a7.5,7.5,0,0,1,1.086-.988,5.7,5.7,0,0,1-.869,1.14c-.587.706-1.466,1.705-2.574,2.922-2.172,2.444-5.344,5.735-8.993,9.188s-7.081,6.43-9.623,8.515c-1.282,1.086-2.324,1.868-3.063,2.422A6.639,6.639,0,0,1,190.3,392.2Z" transform="translate(-34.372 -12.576)" fill="#e0e0e0"/>
        <path id="Path_1105" data-name="Path 1105" d="M161.05,379.89a5.437,5.437,0,0,1,1.282.315l3.443,1.086c2.889.923,6.875,2.237,11.263,3.714s8.352,2.867,11.208,3.9l3.378,1.238a5.859,5.859,0,0,1,1.206.532,5.009,5.009,0,0,1-1.282-.3l-3.443-1.086c-2.889-.923-6.875-2.237-11.263-3.725s-8.352-2.867-11.209-3.888l-3.378-1.249A4.917,4.917,0,0,1,161.05,379.89Z" transform="translate(-36.89 -11.483)" fill="#e0e0e0"/>
        <path id="Path_1106" data-name="Path 1106" d="M164.43,420.94a8.624,8.624,0,0,1,1.64.413l4.41,1.347c3.714,1.162,8.83,2.8,14.478,4.659s10.741,3.551,14.423,4.822l4.344,1.521a11.094,11.094,0,0,1,1.575.641,8.59,8.59,0,0,1-1.651-.413l-4.41-1.347c-3.714-1.162-8.83-2.8-14.478-4.659s-10.741-3.562-14.412-4.822L166,421.57a9.392,9.392,0,0,1-1.575-.63Z" transform="translate(-36.599 -7.949)" fill="#e0e0e0"/>
        <path id="Path_1107" data-name="Path 1107" d="M201.24,435.315a9.709,9.709,0,0,1,1.271-1.292l3.595-3.378c3.03-2.856,7.2-6.821,11.686-11.328s8.45-8.689,11.3-11.73l3.367-3.606a11.53,11.53,0,0,1,1.292-1.282,9.625,9.625,0,0,1-1.086,1.434c-.739.9-1.846,2.172-3.258,3.736-2.77,3.128-6.679,7.364-11.187,11.871s-8.689,8.439-11.817,11.219c-1.564,1.379-2.835,2.5-3.736,3.258A10.8,10.8,0,0,1,201.24,435.315Z" transform="translate(-33.43 -9.519)" fill="#e0e0e0"/>
        <path id="Path_1108" data-name="Path 1108" d="M105.049,95.5l-10.6-3.258s-2.78,8.906-12.077,6.18a9,9,0,0,1-6.593-8.07,9.9,9.9,0,0,1,3.421-8.4c2.726-2.411,7.5-3.877,14.25-.391l7.461-23.894L90.43,54.41l-4.344,14s-15.9-.793-20.951,15.4c-4.833,15.5,7.939,23.438,13.891,25.3C83.544,110.518,99.412,114.254,105.049,95.5Z" transform="translate(-45.24 -39.505)" fill="#f5f5f5"/>
        <rect id="Rectangle_53" data-name="Rectangle 53" width="11.143" height="10.405" transform="translate(57.247 13.252) rotate(-162.67)" fill="#f5f5f5"/>
        <path id="Path_1109" data-name="Path 1109" d="M128.763,68.211l4.247-1.086a3.725,3.725,0,0,1,2.748-4.594,3.562,3.562,0,0,1,3.91,1.314,3.921,3.921,0,0,1,.6,3.508c-.4,1.379-1.694,2.878-4.692,3.128L138.1,80.05l4.192-1.086-1.477-5.6a8.461,8.461,0,0,0,3.769-9.558c-1.629-6.212-7.6-6.18-9.959-5.561C132.8,58.665,126.71,60.739,128.763,68.211Z" transform="translate(-39.706 -39.198)" fill="#ebebeb"/>
        <rect id="Rectangle_54" data-name="Rectangle 54" width="4.428" height="4.134" transform="translate(99.792 42.307) rotate(-15.005)" fill="#ebebeb"/>
        <path id="Path_1110" data-name="Path 1110" d="M451.54,169.051l4.127,1.488a3.736,3.736,0,0,1,4.887-2.172,3.541,3.541,0,0,1,2.455,3.258,3.942,3.942,0,0,1-1.5,3.258c-1.086.9-3.03,1.39-5.637-.109l-3.378,9.308,4.084,1.477,1.977-5.43a8.482,8.482,0,0,0,8.547-5.713c2.172-6.039-2.726-9.395-5.039-10.231C460.294,163.49,454.1,161.741,451.54,169.051Z" transform="translate(-63.881 -29.229)" fill="#ebebeb"/>
        <rect id="Rectangle_55" data-name="Rectangle 55" width="4.41" height="4.116" transform="translate(387.943 156.714) rotate(19.91)" fill="#ebebeb"/>
        <path id="Path_1111" data-name="Path 1111" d="M48.392,214.021l8.689-3.367s-2.824-7.331,4.746-10.4a7.6,7.6,0,0,1,8.58,1.879,8.4,8.4,0,0,1,2.107,7.309c-.543,3.019-2.932,6.517-9.221,7.722l7.6,19.691,8.689-3.323-4.453-11.534s10.861-7.8,5.767-21.157c-4.942-12.773-17.584-11.317-22.439-9.438C54.713,192.842,42.288,198.674,48.392,214.021Z" transform="translate(-46.732 -27.817)" fill="#f5f5f5"/>
        <rect id="Rectangle_56" data-name="Rectangle 56" width="9.395" height="8.776" transform="translate(25.732 213.095) rotate(-21.07)" fill="#f5f5f5"/>
        <path id="Path_1112" data-name="Path 1112" d="M456.567,243.923l-6.191,2.379s2,5.2-3.367,7.375a5.43,5.43,0,0,1-6.082-1.325,5.941,5.941,0,0,1-1.488-5.181c.391-2.172,2.085-4.605,6.517-5.43l-5.322-14-6.126,2.357,3.15,8.178a12.805,12.805,0,0,0-4.084,14.988c3.486,9.047,12.414,8.026,15.89,6.69C452.093,258.922,460.89,254.795,456.567,243.923Z" transform="translate(-65.509 -23.698)" fill="#f5f5f5"/>
        <rect id="Rectangle_57" data-name="Rectangle 57" width="6.658" height="6.212" transform="translate(374.001 201.17) rotate(158.93)" fill="#f5f5f5"/>
      </g>
      <g id="freepik--question-mark--inject-94" transform="translate(1014.429 4543.411)">
        <path id="Path_1122" data-name="Path 1122" d="M145.071,210.7h62.722s0-52.665,54.728-53.6c28.423-.5,43.161,18.127,49.157,32.387,6.951,16.563,4.844,35.439-4.475,50.807-10.633,17.54-33.549,35.168-75.82,27.717l-.4,139.748h62.027V324.918s86.985-22.482,86.985-118.384c0-91.721-74.169-111.531-114.04-112.813-22.178-.706-30.215-1.662-57.65,2.237C173.342,100.954,144.333,141.553,145.071,210.7Z" transform="translate(-119.07 -93.077)" fill="#fa7d00"/>
        <rect id="Rectangle_59" data-name="Rectangle 59" width="62.95" height="58.79" transform="translate(111.738 343.817)" fill="#fa7d00"/>
        <rect id="Rectangle_60" data-name="Rectangle 60" width="62.95" height="58.79" transform="translate(111.738 343.817)" opacity="0.1"/>
        <path id="Path_1123" data-name="Path 1123" d="M145.071,210.7h62.722s0-52.665,54.728-53.6c28.423-.5,43.161,18.127,49.157,32.387,6.951,16.563,4.844,35.439-4.475,50.807-10.633,17.54-33.549,35.168-75.82,27.717l-.4,139.748h62.027V324.918s86.985-22.482,86.985-118.384c0-91.721-74.169-111.531-114.04-112.813-22.178-.706-30.215-1.662-57.65,2.237C173.342,100.954,144.333,141.553,145.071,210.7Z" transform="translate(-119.07 -93.077)" opacity="0.1"/>
        <path id="Path_1124" data-name="Path 1124" d="M121.141,210.67h62.733s0-52.665,54.728-53.6c28.423-.5,43.161,18.127,49.146,32.387,6.962,16.563,4.855,35.439-4.464,50.807-10.633,17.54-33.951,33.484-76.222,26.066v141.4h62.027V324.883S356.074,302.4,356.074,206.5c0-91.721-82.261-113.019-117.461-113.019C211.689,93.513,119.957,100.018,121.141,210.67Z" transform="translate(-121.13 -93.043)" fill="#fa7d00"/>
        <rect id="Rectangle_61" data-name="Rectangle 61" width="62.95" height="58.79" transform="translate(85.758 343.817)" fill="#fa7d00"/>
        <path id="Path_1126" data-name="Path 1126" d="M240.739,152.345a5.424,5.424,0,0,1-.934,0c-.619,0-1.51-.206-2.672-.217a54.185,54.185,0,0,0-9.84.413,69.7,69.7,0,0,0-14.2,3.334,60.737,60.737,0,0,0-7.907,3.41,41.8,41.8,0,0,0-7.744,5.007,38.277,38.277,0,0,0-6.332,6.69,65.564,65.564,0,0,0-4.746,7.19,64.287,64.287,0,0,0-5.615,13.446,54.681,54.681,0,0,0-1.89,9.666c-.13,1.151-.163,2.064-.2,2.672a4.94,4.94,0,0,1-.087.934,5.189,5.189,0,0,1,0-.934c0-.619,0-1.531.1-2.694a49.961,49.961,0,0,1,1.727-9.775,62.559,62.559,0,0,1,5.539-13.6,65.045,65.045,0,0,1,4.768-7.266,38.012,38.012,0,0,1,6.408-6.788,42.1,42.1,0,0,1,7.842-5.072,60.828,60.828,0,0,1,7.961-3.475,68.227,68.227,0,0,1,14.326-3.258,49.959,49.959,0,0,1,9.894-.228,23.4,23.4,0,0,1,2.672.326A6.745,6.745,0,0,1,240.739,152.345Z" transform="translate(-116.185 -88.034)" fill="#263238"/>
        <path id="Path_1127" data-name="Path 1127" d="M331.228,146.163s-.076-.076-.206-.239-.326-.445-.543-.76l-2.075-2.932c-.445-.63-.923-1.358-1.488-2.107l-1.955-2.379L322.724,135c-.815-.956-1.77-1.879-2.726-2.889s-1.933-2.085-3.041-3.117-2.292-2.085-3.508-3.171c-.608-.543-1.206-1.086-1.857-1.662l-2.02-1.6c-1.379-1.086-2.748-2.172-4.236-3.258a136.533,136.533,0,0,0-20.56-12.143l-5.724-2.585-5.68-2.172c-1.857-.771-3.747-1.314-5.572-1.922s-3.606-1.227-5.43-1.651l-5.192-1.358c-1.683-.445-3.356-.717-4.953-1.086a45.163,45.163,0,0,0-4.648-.88l-4.344-.63c-2.748-.467-5.268-.565-7.461-.782-1.086-.087-2.172-.206-3.074-.25l-2.585-.065-3.584-.119H225.28a1.02,1.02,0,0,1,.315,0h7.114c.945,0,1.977.13,3.085.206,2.172.185,4.735.261,7.483.706l4.344.586c1.51.174,3.052.565,4.659.858s3.258.6,4.985,1.086l5.213,1.347c1.8.413,3.584,1.086,5.43,1.64A45.854,45.854,0,0,1,273.492,102l5.713,2.172,5.756,2.6A133.11,133.11,0,0,1,305.6,119c1.5,1.086,2.867,2.248,4.247,3.323l2.02,1.466c.652.543,1.249,1.086,1.857,1.673l3.5,3.258c1.086,1.086,2.064,2.172,3.03,3.161s1.89,1.955,2.7,2.922l2.172,2.77,1.933,2.411c.554.76,1.021,1.5,1.455,2.172.847,1.271,1.51,2.27,1.977,2.987l.51.793A1.251,1.251,0,0,1,331.228,146.163Z" transform="translate(-112.163 -93.028)" fill="#263238"/>
        <path id="Path_1128" data-name="Path 1128" d="M321.91,266a3.359,3.359,0,0,1-.467.652l-1.5,1.77c-.619.793-1.4,1.738-2.368,2.791s-2,2.292-3.258,3.573-2.607,2.715-4.138,4.16-3.193,2.965-4.964,4.551a135.631,135.631,0,0,1-25.371,17.5c-2.107,1.086-4.095,2.172-6.017,3.008s-3.714,1.694-5.365,2.389-3.171,1.271-4.5,1.781-2.487.923-3.443,1.227l-2.172.706a3.79,3.79,0,0,1-.782.217,3.877,3.877,0,0,1,.739-.326l2.172-.8c.945-.337,2.085-.771,3.4-1.314s2.835-1.086,4.464-1.857,3.432-1.5,5.311-2.444,3.888-1.944,5.984-3.041c4.138-2.281,8.6-4.953,13.109-8.037a147.441,147.441,0,0,0,12.164-9.395c1.77-1.564,3.465-3.03,4.974-4.507s2.922-2.813,4.171-4.095,2.346-2.465,3.323-3.508,1.781-1.955,2.433-2.715l1.52-1.727A4.928,4.928,0,0,1,321.91,266Z" transform="translate(-109.383 -78.19)" fill="#263238"/>
        <path id="Path_1129" data-name="Path 1129" d="M256.373,384.457c-.163,0-.293-17.443-.293-38.958s.13-38.969.293-38.969.282,17.443.282,38.969S256.525,384.457,256.373,384.457Z" transform="translate(-109.511 -74.7)" fill="#263238"/>
        <path id="Path_1130" data-name="Path 1130" d="M258.572,464.435c-.163,0-.282-12.24-.282-27.337s.119-27.348.282-27.348.282,12.24.282,27.348S258.725,464.435,258.572,464.435Z" transform="translate(-109.321 -65.814)" fill="#263238"/>
      </g>
    </g>
  </g>
</svg>
