<svg xmlns="http://www.w3.org/2000/svg" width="32.187" height="30.807" viewBox="0 0 32.187 30.807">
  <path id="Icon_awesome-star" data-name="Icon awesome-star" d="M15.808,1.071,11.88,9.036,3.09,10.318A1.926,1.926,0,0,0,2.025,13.6l6.359,6.2-1.5,8.754a1.924,1.924,0,0,0,2.792,2.027l7.863-4.133L25.4,30.581a1.926,1.926,0,0,0,2.792-2.027l-1.5-8.754,6.359-6.2a1.926,1.926,0,0,0-1.065-3.285L23.19,9.036,19.262,1.071a1.927,1.927,0,0,0-3.453,0Z" transform="translate(-1.441 0.001)" fill="#fa7d00"/>
</svg>
