<svg xmlns="http://www.w3.org/2000/svg" width="33" height="33" viewBox="0 0 33 33">
  <path id="Icon_awesome-whatsapp" data-name="Icon awesome-whatsapp" d="M28.058,7.045A16.358,16.358,0,0,0,2.32,26.779L0,35.25l8.67-2.276a16.3,16.3,0,0,0,7.815,1.989h.007A16.51,16.51,0,0,0,33,18.61,16.417,16.417,0,0,0,28.058,7.045ZM16.493,32.208a13.568,13.568,0,0,1-6.924-1.893l-.494-.295L3.934,31.368,5.3,26.352l-.324-.516A13.618,13.618,0,1,1,30.238,18.61,13.744,13.744,0,0,1,16.493,32.208Zm7.455-10.18c-.405-.206-2.416-1.193-2.792-1.326s-.648-.206-.921.206-1.053,1.326-1.3,1.606-.479.309-.884.1c-2.4-1.2-3.978-2.144-5.561-4.862-.42-.722.42-.67,1.2-2.232a.757.757,0,0,0-.037-.715c-.1-.206-.921-2.217-1.26-3.035-.331-.8-.67-.685-.921-.7s-.508-.015-.781-.015a1.514,1.514,0,0,0-1.09.508,4.591,4.591,0,0,0-1.429,3.41,8,8,0,0,0,1.665,4.228c.206.273,2.88,4.4,6.983,6.173,2.593,1.12,3.609,1.215,4.906,1.024a4.185,4.185,0,0,0,2.755-1.945,3.417,3.417,0,0,0,.236-1.945C24.625,22.33,24.352,22.227,23.947,22.028Z" transform="translate(0 -2.25)" fill="#fff"/>
</svg>
