<svg xmlns="http://www.w3.org/2000/svg" width="33.007" height="33" viewBox="0 0 33.007 33">
  <path id="Icon_awesome-instagram" data-name="Icon awesome-instagram" d="M16.5,10.277a8.461,8.461,0,1,0,8.461,8.461A8.447,8.447,0,0,0,16.5,10.277Zm0,13.961a5.5,5.5,0,1,1,5.5-5.5,5.511,5.511,0,0,1-5.5,5.5ZM27.282,9.931a1.973,1.973,0,1,1-1.973-1.973A1.969,1.969,0,0,1,27.282,9.931Zm5.6,2a9.766,9.766,0,0,0-2.666-6.914,9.83,9.83,0,0,0-6.914-2.666c-2.725-.155-10.891-.155-13.615,0A9.816,9.816,0,0,0,2.776,5.012,9.8,9.8,0,0,0,.111,11.926c-.155,2.725-.155,10.891,0,13.615a9.766,9.766,0,0,0,2.666,6.914,9.843,9.843,0,0,0,6.914,2.666c2.725.155,10.891.155,13.615,0a9.766,9.766,0,0,0,6.914-2.666,9.83,9.83,0,0,0,2.666-6.914c.155-2.725.155-10.883,0-13.608Zm-3.52,16.531A5.569,5.569,0,0,1,26.229,31.6c-2.172.862-7.327.663-9.727.663s-7.562.191-9.727-.663a5.569,5.569,0,0,1-3.137-3.137c-.862-2.172-.663-7.327-.663-9.727s-.191-7.562.663-9.727A5.569,5.569,0,0,1,6.775,5.873c2.172-.862,7.327-.663,9.727-.663s7.562-.191,9.727.663A5.569,5.569,0,0,1,29.366,9.01c.862,2.172.663,7.327.663,9.727S30.228,26.3,29.366,28.465Z" transform="translate(0.005 -2.238)" fill="#fff"/>
</svg>
