<svg xmlns="http://www.w3.org/2000/svg" width="35.739" height="35.738" viewBox="0 0 35.739 35.738">
  <path id="Icon_awesome-whatsapp" data-name="Icon awesome-whatsapp" d="M30.386,7.443A17.715,17.715,0,0,0,2.513,28.815L0,37.989l9.389-2.465a17.656,17.656,0,0,0,8.464,2.154h.008a17.88,17.88,0,0,0,17.877-17.71A17.779,17.779,0,0,0,30.386,7.443ZM17.861,34.694a14.694,14.694,0,0,1-7.5-2.05l-.534-.319L4.26,33.784l1.484-5.433-.351-.558a14.748,14.748,0,1,1,27.354-7.826A14.884,14.884,0,0,1,17.861,34.694Zm8.073-11.025c-.439-.223-2.617-1.292-3.023-1.436s-.7-.223-1,.223-1.141,1.436-1.4,1.739-.519.335-.957.112c-2.6-1.3-4.308-2.321-6.023-5.265-.455-.782.455-.726,1.3-2.417a.82.82,0,0,0-.04-.774c-.112-.223-1-2.4-1.364-3.287-.359-.862-.726-.742-1-.758-.255-.016-.55-.016-.846-.016a1.639,1.639,0,0,0-1.181.55,4.972,4.972,0,0,0-1.548,3.694,8.669,8.669,0,0,0,1.8,4.579c.223.3,3.119,4.762,7.563,6.685,2.808,1.213,3.909,1.316,5.313,1.109.854-.128,2.617-1.069,2.984-2.106a3.7,3.7,0,0,0,.255-2.106C26.668,24,26.373,23.885,25.934,23.669Z" transform="translate(0 -2.25)" fill="#25d366"/>
</svg>
