<svg xmlns="http://www.w3.org/2000/svg" width="28.67" height="33" viewBox="0 0 28.67 33">
  <path id="Icon_simple-tiktok" data-name="Icon simple-tiktok" d="M17.426.027C19.227,0,21.015.014,22.8,0a8.564,8.564,0,0,0,2.406,5.734,9.7,9.7,0,0,0,5.83,2.461v5.541A14.717,14.717,0,0,1,25.263,12.4a16.988,16.988,0,0,1-2.227-1.279c-.014,4.015.014,8.03-.028,12.031a10.5,10.5,0,0,1-1.856,5.417,10.244,10.244,0,0,1-8.126,4.414,10.026,10.026,0,0,1-5.61-1.416A10.369,10.369,0,0,1,2.4,23.718c-.027-.687-.041-1.375-.014-2.049a10.351,10.351,0,0,1,12-9.185c.028,2.035-.055,4.07-.055,6.1A4.718,4.718,0,0,0,8.31,21.5a5.454,5.454,0,0,0-.192,2.214,4.68,4.68,0,0,0,4.812,3.946,4.619,4.619,0,0,0,3.809-2.214,3.172,3.172,0,0,0,.564-1.457c.137-2.461.082-4.909.1-7.37.014-5.541-.014-11.069.028-16.6Z" transform="translate(-2.369)" fill="#fff"/>
</svg>
